[Header]
FileType HTR
DataType HTRS
FileVersion 1
NumSegments 64
NumFrames 3
DataFrameRate 24
EulerRotationOrder ZYX
CalibrationUnits mm
RotationUnits Degrees
GlobalAxisofGravity Y
BoneLengthAxis Y
ScaleFactor 1.0
[SegmentNames&Hierarchy]
Hips	GLOBAL
Spine	Hips
Spine1	Spine
Spine2	Spine1
Neck	Spine2
Head	Neck
LeftEye	Head
RightEye	Head
LeftShoulder	Spine2
LeftArm	LeftShoulder
LeftForeArm	LeftArm
LeftHand	LeftForeArm
LeftHandThumb1	LeftHand
LeftHandThumb2	LeftHandThumb1
LeftHandThumb3	LeftHandThumb2
LeftHandThumb4	LeftHandThumb3
LeftHandIndex1	LeftHand
LeftHandIndex2	LeftHandIndex1
LeftHandIndex3	LeftHandIndex2
LeftHandIndex4	LeftHandIndex3
LeftHandMiddle1	LeftHand
LeftHandMiddle2	LeftHandMiddle1
LeftHandMiddle3	LeftHandMiddle2
LeftHandMiddle4	LeftHandMiddle3
LeftHandRing1	LeftHand
LeftHandRing2	LeftHandRing1
LeftHandRing3	LeftHandRing2
LeftHandRing4	LeftHandRing3
LeftHandPinky1	LeftHand
LeftHandPinky2	LeftHandPinky1
LeftHandPinky3	LeftHandPinky2
LeftHandPinky4	LeftHandPinky3
RightShoulder	Spine2
RightArm	RightShoulder
RightForeArm	RightArm
RightHand	RightForeArm
RightHandPinky1	RightHand
RightHandPinky2	RightHandPinky1
RightHandPinky3	RightHandPinky2
RightHandPinky4	RightHandPinky3
RightHandRing1	RightHand
RightHandRing2	RightHandRing1
RightHandRing3	RightHandRing2
RightHandRing4	RightHandRing3
RightHandMiddle1	RightHand
RightHandMiddle2	RightHandMiddle1
RightHandMiddle3	RightHandMiddle2
RightHandMiddle4	RightHandMiddle3
RightHandIndex1	RightHand
RightHandIndex2	RightHandIndex1
RightHandIndex3	RightHandIndex2
RightHandIndex4	RightHandIndex3
RightHandThumb1	RightHand
RightHandThumb2	RightHandThumb1
RightHandThumb3	RightHandThumb2
RightHandThumb4	RightHandThumb3
LeftUpLeg	Hips
LeftLeg	LeftUpLeg
LeftFoot	LeftLeg
LeftToeBase	LeftFoot
RightUpLeg	Hips
RightLeg	RightUpLeg
RightFoot	RightLeg
RightToeBase	RightFoot
[BasePosition]
Hips	0	0	0	0	0	0	1
Spine	0	0	0	0	0	0	1
Spine1	0	0	0	0	0	0	1
Spine2	0	0	0	0	0	0	1
Neck	0	0	0	0	0	0	1
Head	0	0	0	0	0	0	1
LeftEye	0	0	0	0	0	0	1
RightEye	0	0	0	0	0	0	1
LeftShoulder	0	0	0	0	0	0	1
LeftArm	0	0	0	0	0	0	1
LeftForeArm	0	0	0	0	0	0	1
LeftHand	0	0	0	0	0	0	1
LeftHandThumb1	0	0	0	0	0	0	1
LeftHandThumb2	0	0	0	0	0	0	1
LeftHandThumb3	0	0	0	0	0	0	1
LeftHandThumb4	0	0	0	0	0	0	1
LeftHandIndex1	0	0	0	0	0	0	1
LeftHandIndex2	0	0	0	0	0	0	1
LeftHandIndex3	0	0	0	0	0	0	1
LeftHandIndex4	0	0	0	0	0	0	1
LeftHandMiddle1	0	0	0	0	0	0	1
LeftHandMiddle2	0	0	0	0	0	0	1
LeftHandMiddle3	0	0	0	0	0	0	1
LeftHandMiddle4	0	0	0	0	0	0	1
LeftHandRing1	0	0	0	0	0	0	1
LeftHandRing2	0	0	0	0	0	0	1
LeftHandRing3	0	0	0	0	0	0	1
LeftHandRing4	0	0	0	0	0	0	1
LeftHandPinky1	0	0	0	0	0	0	1
LeftHandPinky2	0	0	0	0	0	0	1
LeftHandPinky3	0	0	0	0	0	0	1
LeftHandPinky4	0	0	0	0	0	0	1
RightShoulder	0	0	0	0	0	0	1
RightArm	0	0	0	0	0	0	1
RightForeArm	0	0	0	0	0	0	1
RightHand	0	0	0	0	0	0	1
RightHandPinky1	0	0	0	0	0	0	1
RightHandPinky2	0	0	0	0	0	0	1
RightHandPinky3	0	0	0	0	0	0	1
RightHandPinky4	0	0	0	0	0	0	1
RightHandRing1	0	0	0	0	0	0	1
RightHandRing2	0	0	0	0	0	0	1
RightHandRing3	0	0	0	0	0	0	1
RightHandRing4	0	0	0	0	0	0	1
RightHandMiddle1	0	0	0	0	0	0	1
RightHandMiddle2	0	0	0	0	0	0	1
RightHandMiddle3	0	0	0	0	0	0	1
RightHandMiddle4	0	0	0	0	0	0	1
RightHandIndex1	0	0	0	0	0	0	1
RightHandIndex2	0	0	0	0	0	0	1
RightHandIndex3	0	0	0	0	0	0	1
RightHandIndex4	0	0	0	0	0	0	1
RightHandThumb1	0	0	0	0	0	0	1
RightHandThumb2	0	0	0	0	0	0	1
RightHandThumb3	0	0	0	0	0	0	1
RightHandThumb4	0	0	0	0	0	0	1
LeftUpLeg	0	0	0	0	0	0	1
LeftLeg	0	0	0	0	0	0	1
LeftFoot	0	0	0	0	0	0	1
LeftToeBase	0	0	0	0	0	0	1
RightUpLeg	0	0	0	0	0	0	1
RightLeg	0	0	0	0	0	0	1
RightFoot	0	0	0	0	0	0	1
RightToeBase	0	0	0	0	0	0	1
[Hips]
1	1.43654716	1033.994751	14.22775269	-3.418464184	-5.443013191	-3.429036379	1.0
2	5.151104927	1034.12207	12.99996471	-2.422552824	-6.572986603	-3.329339027	1.0
3	8.865663528	1034.24939	11.77217865	-1.426641822	-7.702959538	-3.229641914	1.0
[Spine]
1	0	101.8159943	1.315000057	3.367666721	1.381290555	2.820413113	1.0
2	0	101.8159943	1.315000057	3.556871891	1.465710521	2.925720692	1.0
3	0	101.8159943	1.315000057	3.746076822	1.550130367	3.031028509	1.0
[Spine1]
1	0	100.8349991	-10.00800037	1.160682201	0.3080509305	1.559330821	1.0
2	0	100.8349991	-10.00800037	1.23532927	0.3109214306	1.594980836	1.0
3	0	100.8349991	-10.00800037	1.30997622	0.3137919307	1.63063097	1.0
[Spine2]
1	0	91	-13.73399925	1.135434985	0.3307678699	1.562716007	1.0
2	0	91	-13.73399925	1.210009456	0.3335332274	1.599074244	1.0
3	0	91	-13.73399925	1.284583807	0.3362985849	1.635432243	1.0
[Neck]
1	0	166.7169952	-25.16200066	5.625518799	-0.1231569424	0.4447512031	1.0
2	0	166.7169952	-25.16200066	5.376915455	-0.03511523083	0.4580491185	1.0
3	0	166.7169952	-25.16200066	5.128312111	0.05292648077	0.4713470638	1.0
[Head]
1	0	96.17900085	16.84999847	-7.567394257	1.353144288	-0.2609966993	1.0
2	0	96.17900085	16.84999847	-8.316638947	1.858926654	-0.7850576043	1.0
3	0	96.17900085	16.84999847	-9.06588459	2.364709139	-1.309118509	1.0
[LeftEye]
1	30.6760006	64.09500122	92.83599854	0	0	0	1.0
2	30.6760006	64.09500122	92.83599854	0	0	0	1.0
3	30.6760006	64.09500122	92.83599854	0	0	0	1.0
[RightEye]
1	-30.6760006	64.09500122	92.83499908	0	0	0	1.0
2	-30.6760006	64.09500122	92.83499908	0	0	0	1.0
3	-30.6760006	64.09500122	92.83499908	0	0	0	1.0
[LeftShoulder]
1	45.70400238	109.4599991	-26.28000069	4.903663158	-16.79105949	-13.2045536	1.0
2	45.70400238	109.4599991	-26.28000069	4.924778938	-16.76730156	-12.69259453	1.0
3	45.70400238	109.4599991	-26.28000069	4.945895195	-16.74354744	-12.18063736	1.0
[LeftArm]
1	105.923996	-5.24600029	-22.32099915	20.12803841	-3.088285446	-71.00369263	1.0
2	105.923996	-5.24600029	-22.32099915	21.21737099	-4.402639389	-70.29888916	1.0
3	105.923996	-5.24600029	-22.32099915	22.30670547	-5.716993809	-69.59409332	1.0
[LeftForeArm]
1	278.414978	-0.0009999999311	0	8.947698007e-06	-1.459366679	-0.0002043652494	1.0
2	278.414978	-0.0009999999311	0	5.04198033e-06	-1.635207891	-0.0002024845016	1.0
3	278.414978	-0.0009999999311	0	1.136262995e-06	-1.811049104	-0.000200603783	1.0
[LeftHand]
1	283.2879944	0	0	-32.95537567	-4.523308277	-4.43965292	1.0
2	283.2879944	0	0	-33.24831009	-3.798315763	-3.812806845	1.0
3	283.2879944	0	0	-33.54123688	-3.073323011	-3.185961246	1.0
[LeftHandThumb1]
1	24.6609993	-15.75	26.8239994	-0.4889836609	2.201390266	4.81856823	1.0
2	24.6609993	-15.75	26.8239994	-0.4889850318	2.201390982	4.818557262	1.0
3	24.6609993	-15.75	26.8239994	-0.4889864326	2.201390982	4.818546295	1.0
[LeftHandThumb2]
1	32.29800034	-18.64699936	18.64699936	19.88581657	19.96446419	23.26735878	1.0
2	32.29800034	-18.64699936	18.64699936	20.40629768	20.2175808	23.36561203	1.0
3	32.29800034	-18.64699936	18.64699936	20.9267807	20.47070122	23.463871	1.0
[LeftHandThumb3]
1	26.52600098	-15.31499958	15.31499958	-13.14535618	5.551738739	7.967935085	1.0
2	26.52600098	-15.31499958	15.31499958	-13.17153931	5.407968521	8.047431946	1.0
3	26.52600098	-15.31499958	15.31499958	-13.19772053	5.264197826	8.126930237	1.0
[LeftHandThumb4]
1	19.54599953	-11.28499985	11.28499985	0	0	0	1.0
2	19.54599953	-11.28499985	11.28499985	0	0	0	1.0
3	19.54599953	-11.28499985	11.28499985	0	0	0	1.0
[LeftHandIndex1]
1	91.09299469	-5.170999527	22.60099792	0.1480515152	-0.9618671536	-7.594519138	1.0
2	91.09299469	-5.170999527	22.60099792	0.2133283764	-0.6065328121	-8.535855293	1.0
3	91.09299469	-5.170999527	22.60099792	0.2786052227	-0.251198411	-9.477190018	1.0
[LeftHandIndex2]
1	36.76399994	0	0	-0.266703397	1.745171547	-17.37647057	1.0
2	36.76399994	0	0	-0.2664906383	1.744488955	-17.36945915	1.0
3	36.76399994	0	0	-0.2662779391	1.743806481	-17.36244965	1.0
[LeftHandIndex3]
1	28.83100128	0	0	-0.057428509	0.8173380494	-8.038372993	1.0
2	28.83100128	0	0	-0.05733016878	0.816631794	-8.031373978	1.0
3	28.83100128	0	0	-0.05723182857	0.8159254789	-8.024374008	1.0
[LeftHandIndex4]
1	23.92700005	0	0	0	0	0	1.0
2	23.92700005	0	0	0	0	0	1.0
3	23.92700005	0	0	0	0	0	1.0
[LeftHandMiddle1]
1	95.33399963	0	0	-0.7942891717	2.538624287	-15.71736717	1.0
2	95.33399963	0	0	-0.836147368	2.670015812	-16.32359314	1.0
3	95.33399963	0	0	-0.8780056834	2.801407099	-16.92981911	1.0
[LeftHandMiddle2]
1	36.98199844	0	0	-0.2676118016	1.748068452	-17.40630722	1.0
2	36.98199844	0	0	-0.2665582597	1.744706631	-17.3717308	1.0
3	36.98199844	0	0	-0.265504688	1.741344929	-17.33715248	1.0
[LeftHandMiddle3]
1	29.50900078	0	0	-0.2992144227	1.845814586	-18.41412735	1.0
2	29.50900078	0	0	-0.2980917096	1.842434525	-18.37918854	1.0
3	29.50900078	0	0	-0.2969689667	1.839054704	-18.34425163	1.0
[LeftHandMiddle4]
1	28.3390007	0	0	0	0	0	1.0
2	28.3390007	0	0	0	0	0	1.0
3	28.3390007	0	0	0	0	0	1.0
[LeftHandRing1]
1	91.04499817	-0.4390000105	-18.65100098	-1.184956908	3.4366436	-21.16630936	1.0
2	91.04499817	-0.4390000105	-18.65100098	-1.227993369	3.49697113	-21.7282505	1.0
3	91.04499817	-0.4390000105	-18.65100098	-1.271029711	3.557298422	-22.29019356	1.0
[LeftHandRing2]
1	31.54000092	0	0	-0.3849363327	2.085558891	-20.91279984	1.0
2	31.54000092	0	0	-0.3870830536	2.091154575	-20.97158813	1.0
3	31.54000092	0	0	-0.3892298043	2.096750259	-21.03037834	1.0
[LeftHandRing3]
1	29.37700081	0	0	-0.2818071544	1.792703629	-17.86577415	1.0
2	29.37700081	0	0	-0.2836478353	1.798390269	-17.92444229	1.0
3	29.37700081	0	0	-0.2854885161	1.804077029	-17.98310852	1.0
[LeftHandRing4]
1	26.47500038	0	0	0	0	0	1.0
2	26.47500038	0	0	0	0	0	1.0
3	26.47500038	0	0	0	0	0	1.0
[LeftHandPinky1]
1	80.77799988	-4.887000084	-38.06099701	-1.70846951	5.355367184	-27.16539001	1.0
2	80.77799988	-4.887000084	-38.06099701	-1.746821761	5.150201797	-27.49972153	1.0
3	80.77799988	-4.887000084	-38.06099701	-1.785174012	4.945035934	-27.83405495	1.0
[LeftHandPinky2]
1	36	0	0	-0.2676201761	1.748110652	-17.40664482	1.0
2	36	0	0	-0.2698035836	1.755030394	-17.47784615	1.0
3	36	0	0	-0.2719869912	1.761950254	-17.54904366	1.0
[LeftHandPinky3]
1	21.14200211	0	0	-0.2408534884	1.660354137	-16.50661659	1.0
2	21.14200211	0	0	-0.2429332882	1.66732204	-16.57793045	1.0
3	21.14200211	0	0	-0.2450130731	1.674289823	-16.64923859	1.0
[LeftHandPinky4]
1	19.75699997	0	0	0	0	0	1.0
2	19.75699997	0	0	0	0	0	1.0
3	19.75699997	0	0	0	0	0	1.0
[RightShoulder]
1	-45.70000076	109.4620056	-26.28000069	5.183749676	14.5102253	15.52840328	1.0
2	-45.70000076	109.4620056	-26.28000069	5.126610279	14.52951527	15.40782547	1.0
3	-45.70000076	109.4620056	-26.28000069	5.069470882	14.54880619	15.28724861	1.0
[RightArm]
1	-105.9280014	-5.248000145	-22.32099915	30.23854256	2.220950365	62.62535477	1.0
2	-105.9280014	-5.248000145	-22.32099915	28.93119049	1.93856287	60.78606415	1.0
3	-105.9280014	-5.248000145	-22.32099915	27.62384033	1.656175375	58.9467659	1.0
[RightForeArm]
1	-278.414978	0	0	-1.014430609e-06	6.693533421	-8.671583601e-06	1.0
2	-278.414978	0	0	-2.760272537e-06	10.26120281	-1.201101168e-05	1.0
3	-278.414978	0	0	-4.506114692e-06	13.82887268	-1.535044066e-05	1.0
[RightHand]
1	-283.2879944	0	0.0009999999311	-20.07678032	1.855671287	6.545353413	1.0
2	-283.2879944	0	0.0009999999311	-19.9341526	1.408925891	2.679700851	1.0
3	-283.2879944	0	0.0009999999311	-19.79152679	0.9621805549	-1.185951591	1.0
[RightHandPinky1]
1	-80.76699829	-4.885000229	-38.06000137	-1.507182956	-4.696118355	26.50586891	1.0
2	-80.76699829	-4.885000229	-38.06000137	-1.688657761	-4.212656975	27.42667198	1.0
3	-80.76699829	-4.885000229	-38.06000137	-1.870132565	-3.729196072	28.34747314	1.0
[RightHandPinky2]
1	-36	0	0.0009999999311	-0.2127589583	-1.388873935	17.43785477	1.0
2	-36	0	0.0009999999311	-0.2126237899	-1.388458252	17.43247414	1.0
3	-36	0	0.0009999999311	-0.2124886215	-1.38804245	17.4270916	1.0
[RightHandPinky3]
1	-21.14200211	0	0	-0.1919156313	-1.320599556	16.53640556	1.0
2	-21.14200211	0	0	-0.1916818023	-1.319835186	16.52650261	1.0
3	-21.14200211	0	0	-0.1914479733	-1.319070697	16.51659775	1.0
[RightHandPinky4]
1	-19.75699997	0	0	0	0	0	1.0
2	-19.75699997	0	0	0	0	0	1.0
3	-19.75699997	0	0	0	0	0	1.0
[RightHandRing1]
1	-91.03599548	-0.4390000105	-18.65100098	-1.045238495	-2.883117914	20.47787666	1.0
2	-91.03599548	-0.4390000105	-18.65100098	-1.096512675	-2.644840956	21.24869728	1.0
3	-91.03599548	-0.4390000105	-18.65100098	-1.147786736	-2.40656352	22.01951599	1.0
[RightHandRing2]
1	-31.54000092	0	0	-0.306692481	-1.658751369	20.94924736	1.0
2	-31.54000092	0	0	-0.3124256432	-1.673533082	21.14517975	1.0
3	-31.54000092	0	0	-0.3181588352	-1.688314676	21.34110832	1.0
[RightHandRing3]
1	-29.37700081	0	0	-0.2245400101	-1.425852418	17.89772797	1.0
2	-29.37700081	0	0	-0.2294926345	-1.440962434	18.09412575	1.0
3	-29.37700081	0	0	-0.2344452739	-1.45607233	18.29052162	1.0
[RightHandRing4]
1	-26.47500038	0	0	0	0	0	1.0
2	-26.47500038	0	0	0	0	0	1.0
3	-26.47500038	0	0	0	0	0	1.0
[RightHandMiddle1]
1	-95.32500458	0	0	-0.7017191052	-2.087755919	15.01528358	1.0
2	-95.32500458	0	0	-0.7492664456	-2.050005198	15.79819107	1.0
3	-95.32500458	0	0	-0.7968137264	-2.012254715	16.58110046	1.0
[RightHandMiddle2]
1	-36.98199844	0	0	-0.2132350355	-1.390361547	17.43751335	1.0
2	-36.98199844	0	0	-0.2155214846	-1.397608995	17.53139114	1.0
3	-36.98199844	0	0	-0.2178079337	-1.404856324	17.62526894	1.0
[RightHandMiddle3]
1	-29.50900078	0	0	-0.2384036481	-1.470122099	18.44692802	1.0
2	-29.50900078	0	0	-0.2408339828	-1.477372408	18.54141045	1.0
3	-29.50900078	0	0	-0.2432643175	-1.484622717	18.63589478	1.0
[RightHandMiddle4]
1	-28.3390007	0	0.0009999999311	0	0	0	1.0
2	-28.3390007	0	0.0009999999311	0	0	0	1.0
3	-28.3390007	0	0.0009999999311	0	0	0	1.0
[RightHandIndex1]
1	-91.08300018	-5.167999744	22.60099792	0.1884813458	1.25193727	6.825607777	1.0
2	-91.08300018	-5.167999744	22.60099792	0.08649922907	1.272580624	7.865565777	1.0
3	-91.08300018	-5.167999744	22.60099792	-0.01548290718	1.293223858	8.9055233	1.0
[RightHandIndex2]
1	-36.76399994	0	0	-0.212509945	-1.388060093	17.40764618	1.0
2	-36.76399994	0	0	-0.2137835026	-1.392109871	17.4601326	1.0
3	-36.76399994	0	0	-0.2150570601	-1.396159649	17.51262283	1.0
[RightHandIndex3]
1	-28.83100128	0	0	-0.04576691613	-0.6501122117	8.0535326	1.0
2	-28.83100128	0	0	-0.0463728942	-0.6543598771	8.106506348	1.0
3	-28.83100128	0	0	-0.04697887227	-0.6586074829	8.159481049	1.0
[RightHandIndex4]
1	-23.92700005	0	0	0	0	0	1.0
2	-23.92700005	0	0	0	0	0	1.0
3	-23.92700005	0	0	0	0	0	1.0
[RightHandThumb1]
1	-24.64799881	-15.72700024	26.82600021	-1.658462048	-0.2891435027	-4.221324921	1.0
2	-24.64799881	-15.72700024	26.82600021	-1.658459544	-0.2891435623	-4.221324921	1.0
3	-24.64799881	-15.72700024	26.82600021	-1.658456922	-0.2891435921	-4.221324921	1.0
[RightHandThumb2]
1	-32.29800034	-18.64699936	18.64699936	22.25259399	-23.88968277	-24.28244781	1.0
2	-32.29800034	-18.64699936	18.64699936	21.89193726	-23.07815933	-23.99443054	1.0
3	-32.29800034	-18.64699936	18.64699936	21.53128433	-22.26663208	-23.70641327	1.0
[RightHandThumb3]
1	-26.52600098	-15.31399918	15.31399918	-14.47829533	-6.743855	-11.36568546	1.0
2	-26.52600098	-15.31399918	15.31399918	-14.49812889	-6.714210987	-11.46905422	1.0
3	-26.52600098	-15.31399918	15.31399918	-14.51796341	-6.684566498	-11.57242203	1.0
[RightHandThumb4]
1	-19.54599953	-11.28499985	11.28499985	0	0	0	1.0
2	-19.54599953	-11.28499985	11.28499985	0	0	0	1.0
3	-19.54599953	-11.28499985	11.28499985	0	0	0	1.0
[LeftUpLeg]
1	82.07800293	-67.51699829	-15.99599934	-8.337859154	16.22644615	7.747322083	1.0
2	82.07800293	-67.51699829	-15.99599934	-9.193271637	16.78237152	7.506957054	1.0
3	82.07800293	-67.51699829	-15.99599934	-10.04868507	17.33829498	7.266591072	1.0
[LeftLeg]
1	0	-443.7049866	2.845999956	12.27550125	1.103354335	4.506643772	1.0
2	0	-443.7049866	2.845999956	12.29949951	1.921629906	4.068833828	1.0
3	0	-443.7049866	2.845999956	12.32349873	2.739905596	3.631024122	1.0
[LeftFoot]
1	0	-444.2789917	-29.8219986	1.203208923	0.6686760187	-7.098482609	1.0
2	0	-444.2789917	-29.8219986	1.196504831	0.6539769173	-6.605818748	1.0
3	0	-444.2789917	-29.8219986	1.18980062	0.6392777562	-6.113155365	1.0
[LeftToeBase]
1	0	-87.28699493	107.1060028	-4.928526402	5.813024018e-06	-1.443470751e-06	1.0
2	0	-87.28699493	107.1060028	-4.928524494	3.437492296e-06	-7.894456644e-07	1.0
3	0	-87.28699493	107.1060028	-4.928522587	1.061960461e-06	-1.354204642e-07	1.0
[RightUpLeg]
1	-82.07800293	-67.51699829	-15.99599934	0.01734786294	-10.41087055	3.456106663	1.0
2	-82.07800293	-67.51699829	-15.99599934	-1.195441484	-10.10135078	3.270618439	1.0
3	-82.07800293	-67.51699829	-15.99599934	-2.408230782	-9.791830063	3.085130215	1.0
[RightLeg]
1	0	-443.7049866	2.861999989	7.963569641	-9.246132851	-4.548676014	1.0
2	0	-443.7049866	2.861999989	7.859622478	-8.866234779	-4.39722538	1.0
3	0	-443.7049866	2.861999989	7.755674839	-8.486335754	-4.245775223	1.0
[RightFoot]
1	0	-444.2770081	-29.83799934	-3.731407166	-1.439762712	3.293233395	1.0
2	0	-444.2770081	-29.83799934	-3.335458755	-0.9445658326	3.343560696	1.0
3	0	-444.2770081	-29.83799934	-2.939510584	-0.4493688643	3.393888235	1.0
[RightToeBase]
1	0	-87.28699493	107.1060028	-7.282872677	1.53975293e-06	1.76867843e-07	1.0
2	0	-87.28699493	107.1060028	-7.296718121	-2.493870625e-06	-3.138686111e-08	1.0
3	0	-87.28699493	107.1060028	-7.310564518	-6.527494406e-06	-2.396415653e-07	1.0
[EndOfFile]
